<?xml version="1.0" encoding="UTF-8"?>
<!-- Generated by Pixelmator Pro 3.6.13 -->
<svg width="24" height="24" viewBox="0 0 24 24" xmlns="http://www.w3.org/2000/svg">
    <path id="Path" fill="#000000" stroke="none" d="M 3.75 1 C 2.231217 1 1 2.231218 1 3.75 L 1 17.5 L 3.75 17.5 L 3.75 3.75 L 17.5 3.75 L 17.5 1 Z M 20.25 9.25 L 20.25 20.25 L 9.25 20.25 L 9.25 9.25 Z M 20.25 6.5 L 9.25 6.5 C 7.731217 6.5 6.5 7.731216 6.5 9.25 L 6.5 20.25 C 6.5 21.768784 7.731217 23 9.25 23 L 20.25 23 C 21.768784 23 23 21.768784 23 20.25 L 23 9.25 C 23 7.731216 21.768784 6.5 20.25 6.5 M 18.875 16.125 L 10.625 16.125 L 10.625 13.375 L 18.875 13.375 Z"/>
</svg>
