<?xml version="1.0" encoding="UTF-8"?>
<!-- Generated by Pixelmator Pro 3.6.13 -->
<svg width="24" height="24" viewBox="0 0 24 24" xmlns="http://www.w3.org/2000/svg">
    <path id="Path" fill="#000000" stroke="none" d="M 4.333333 1 C 2.860574 1 1.666667 2.231218 1.666667 3.75 L 1.666667 17.5 L 4.333333 17.5 L 4.333333 3.75 L 17.666666 3.75 L 17.666666 1 Z M 20.333334 9.25 L 20.333334 20.25 L 9.666667 20.25 L 9.666667 9.25 Z M 20.333334 6.5 L 9.666667 6.5 C 8.193908 6.5 7 7.731216 7 9.25 L 7 20.25 C 7 21.768784 8.193908 23 9.666667 23 L 20.333334 23 C 21.806093 23 23 21.768784 23 20.25 L 23 9.25 C 23 7.731216 21.806093 6.5 20.333334 6.5 Z M 19 16.125 L 16.333334 16.125 L 16.333334 18.875 L 13.666667 18.875 L 13.666667 16.125 L 11 16.125 L 11 13.375 L 13.666667 13.375 L 13.666667 10.625 L 16.333334 10.625 L 16.333334 13.375 L 19 13.375 Z"/>
</svg>
